HIERARCHY
ROOT Hips
{
	OFFSET -3.958830 18.904000 13.208200
	CHANNELS 6 Xposition Yposition Zposition Zrotation Yrotation Xrotation 
	JOINT LHipJoint
	{
		OFFSET 0.000000 0.000000 0.000000
		CHANNELS 3 Zrotation Yrotation Xrotation
		JOINT LeftUpLeg
		{
			OFFSET 1.800000 -1.400000 0.085000
			CHANNELS 3 Zrotation Yrotation Xrotation
			JOINT LeftLeg
			{
				OFFSET 2.215000 -6.000000 0.000000
				CHANNELS 3 Zrotation Yrotation Xrotation
				JOINT LeftFoot
				{
					OFFSET 2.500000 -6.900000 0.000000
					CHANNELS 3 Zrotation Yrotation Xrotation
					JOINT LeftToeBase
					{
						OFFSET 0.200000 -0.500000 1.950000
						CHANNELS 3 Zrotation Yrotation Xrotation
						End Site
						{
							OFFSET 0.000000 0.000000 0.000000
						}
					}
				}
			}
		}
	}
	JOINT RHipJoint
	{
		OFFSET 0.000000 0.000000 0.000000
		CHANNELS 3 Zrotation Yrotation Xrotation
		JOINT RightUpLeg
		{
			OFFSET -1.800000 -1.400000 0.085000
			CHANNELS 3 Zrotation Yrotation Xrotation
			JOINT RightLeg
			{
				OFFSET -2.215000 -6.000000 0.000000
				CHANNELS 3 Zrotation Yrotation Xrotation
				JOINT RightFoot
				{
					OFFSET -2.500000 -6.900000 0.000000
					CHANNELS 3 Zrotation Yrotation Xrotation
					JOINT RightToeBase
					{
						OFFSET -0.200000 -0.500000 1.950000
						CHANNELS 3 Zrotation Yrotation Xrotation
						End Site
						{
							OFFSET 0.000000 0.000000 0.000000
						}
					}
				}
			}
		}
	}
	JOINT LowerBack
	{
		OFFSET 0.000000 0.000000 0.000000
		CHANNELS 3 Zrotation Yrotation Xrotation
		JOINT Spine
		{
			OFFSET -0.087000 1.940000 -0.288900
			CHANNELS 3 Zrotation Yrotation Xrotation
			JOINT Spine1
			{
				OFFSET 0.000000 1.950000 0.060000
				CHANNELS 3 Zrotation Yrotation Xrotation
				JOINT Neck
				{
					OFFSET 0.000000 0.000000 0.000000
					CHANNELS 3 Zrotation Yrotation Xrotation
					JOINT Neck1
					{
						OFFSET 0.000000 1.600000 0.340000
						CHANNELS 3 Zrotation Yrotation Xrotation
						JOINT Head
						{
							OFFSET 0.000000 1.667000 -0.240000
							CHANNELS 3 Zrotation Yrotation Xrotation
							End Site
							{
								OFFSET 0.000000 0.000000 0.000000
							}
						}
					}
				}
				JOINT LeftShoulder
				{
					OFFSET 0.000000 0.000000 0.000000
					CHANNELS 3 Zrotation Yrotation Xrotation
					JOINT LeftArm
					{
						OFFSET 2.700000 1.550000 -0.730000
						CHANNELS 3 Zrotation Yrotation Xrotation
						JOINT LeftForeArm
						{
							OFFSET 5.450000 0.000000 0.000000
							CHANNELS 3 Zrotation Yrotation Xrotation
							JOINT LeftHand
							{
								OFFSET 3.450000 0.000000 0.000000
								CHANNELS 3 Zrotation Yrotation Xrotation
								JOINT LeftHandIndex1
								{
									OFFSET 0.750000 0.000000 0.000000
									CHANNELS 3 Zrotation Yrotation Xrotation
									End Site
									{
										OFFSET 0.000000 0.000000 0.000000
									}
								}
							}
						}
					}
				}
				JOINT RightShoulder
				{
					OFFSET 0.000000 0.000000 0.000000
					CHANNELS 3 Zrotation Yrotation Xrotation
					JOINT RightArm
					{
						OFFSET -2.700000 1.550000 -0.730000
						CHANNELS 3 Zrotation Yrotation Xrotation
						JOINT RightForeArm
						{
							OFFSET -5.450000 0.000000 0.000000
							CHANNELS 3 Zrotation Yrotation Xrotation
							JOINT RightHand
							{
								OFFSET -3.450000 0.000000 0.000000
								CHANNELS 3 Zrotation Yrotation Xrotation
								JOINT RightHandIndex1
								{
									OFFSET -0.750000 0.000000 0.000000
									CHANNELS 3 Zrotation Yrotation Xrotation
									End Site
									{
										OFFSET 0.000000 0.000000 0.000000
									}
								}
							}
						}
					}
				}
			}
		}
	}
}
MOTION
Frames: 13
Frame Time: 0.016667
1.367170 17.657990 -1.845810 0.559728 5.119678 -0.959369 -15.164568 13.536861 3.252084 -1.231102 -0.237761 -7.275065 -11.807937 6.810548 10.692639 -0.170157 4.647530 3.153470 -0.377720 -0.589520 -0.364830 18.293573 -10.340594 3.073495 2.671329 3.601870 -29.556838 -5.528054 -1.850306 18.346831 0.310072 -2.055011 3.748010 -0.275030 0.625980 0.030740 -3.696980 -2.791257 -7.780681 7.940899 -5.129086 11.207869 -8.391525 -3.735289 5.166652 2.152924 -3.167025 -11.128564 -10.317761 6.425842 43.597304 -0.926950 2.486490 7.325510 -22.395075 -11.704739 4.103487 -37.160920 -4.910503 -3.612532 -10.591371 -23.472269 0.798000 -3.982060 2.804746 0.263320 0.304480 -0.324420 0.038500 18.010539 12.399842 8.523402 57.205352 -1.114866 -12.211637 46.923432 47.974225 13.480804 2.240930 -1.462218 -0.395150 0.333230 0.431720 -0.037800 
1.359260 17.646060 -1.831950 0.530855 5.056776 -1.267802 -15.166897 13.555011 3.235090 -1.040372 -0.243123 -7.140455 -11.764570 6.950551 11.363739 -0.158038 4.709107 3.124418 -0.355600 -0.567490 -0.342600 18.286679 -10.351760 3.070427 2.411226 3.554364 -29.582527 -5.230707 -1.910611 18.080830 0.304537 -2.028997 3.748827 -0.265680 0.613180 0.042010 -3.683170 -2.790308 -7.770879 7.760283 -5.101632 11.225569 -8.397252 -3.724272 5.215952 2.152555 -3.086543 -11.041170 -10.164355 6.455639 43.789850 -0.832180 2.534040 6.904530 -22.408193 -11.754730 4.038177 -37.139592 -5.448890 -3.259630 -9.892559 -22.363362 0.625737 -3.988694 2.799087 0.265450 0.298990 -0.310920 0.038070 18.033821 12.387309 8.395000 57.233339 -0.645455 -11.952645 46.407955 47.491157 13.150385 2.245388 -1.461503 -0.381800 0.325900 0.420700 -0.039180 
1.341610 17.628520 -1.813710 0.818611 4.728391 -1.670197 -15.202712 13.605693 3.224208 -1.118139 -0.249190 -7.098741 -11.529831 7.162732 12.594597 -0.144655 4.796322 3.089032 -0.359770 -0.565290 -0.349770 18.241718 -10.354787 3.066131 1.719909 3.466565 -29.891063 -4.754206 -1.996931 17.707702 0.320144 -1.994250 3.761129 -0.261820 0.618110 0.039160 -3.560670 -2.854350 -7.767443 6.611813 -4.784594 11.166171 -7.818827 -3.519894 5.227127 2.068375 -2.987728 -11.030754 -10.061806 6.490680 44.190694 -0.801390 2.601530 7.145740 -22.362588 -12.044279 4.034360 -37.342290 -6.395659 -2.559899 -8.627243 -20.145057 0.337271 -4.016893 2.774396 0.256040 0.305690 -0.316740 0.036530 18.277686 12.742299 8.310663 57.047789 0.037527 -11.604789 44.873857 46.507186 12.267029 2.246716 -1.446276 -0.382500 0.327250 0.424190 -0.036890 
1.317510 17.610320 -1.787850 0.920786 4.586957 -2.246657 -15.232874 13.670209 3.204800 -0.910131 -0.322186 -7.141371 -11.329465 7.479278 14.262695 -0.123348 4.949041 3.032577 -0.380390 -0.580170 -0.374490 18.198054 -10.363157 3.055290 0.858782 3.358621 -30.102420 -4.002007 -2.171592 17.575404 0.335106 -1.990187 3.761048 -0.265170 0.637180 0.032780 -3.451684 -2.936542 -7.760849 5.618641 -4.532516 11.043734 -7.248970 -3.356327 5.337719 1.937433 -2.852896 -11.237414 -9.994161 6.671527 44.942174 -0.343080 2.569100 7.750840 -22.118859 -12.850727 4.226630 -37.594710 -7.645520 -1.513763 -7.444960 -16.889662 0.063074 -4.055930 2.738642 0.249200 0.314040 -0.327460 0.035780 18.412720 13.539181 8.385327 57.069875 0.805916 -11.386301 42.624249 45.410456 11.065167 2.247962 -1.416877 -0.392440 0.336830 0.438450 -0.029860 
1.288930 17.596220 -1.755600 0.816703 4.387353 -2.810518 -15.262512 13.737399 3.166453 -0.613699 -0.409316 -7.222810 -10.757717 7.708290 15.994967 -0.108737 5.090700 2.979641 -0.396270 -0.604370 -0.387790 18.157001 -10.377956 3.045815 0.232679 3.278132 -30.101990 -3.633333 -2.253618 17.354915 0.347903 -1.992699 3.758861 -0.275700 0.654380 0.040500 -3.345650 -3.004774 -7.735593 4.752995 -4.262438 10.689928 -6.505417 -3.189368 5.573676 1.809413 -2.656779 -11.474315 -9.763124 6.786135 45.729072 -0.087390 2.673340 8.560750 -21.630079 -13.744776 4.543220 -38.357948 -8.819788 -0.477478 -6.374532 -13.822835 -0.152924 -4.100380 2.720688 0.244130 0.327220 -0.339520 0.033200 18.301510 14.409060 8.414358 57.325071 1.864054 -11.072561 39.376740 43.655297 9.401333 2.246264 -1.387396 -0.397130 0.331620 0.451750 -0.028940 
1.258590 17.582130 -1.721890 0.688351 3.871905 -3.262912 -15.296921 13.782555 3.134865 -0.241742 -0.473412 -7.267311 -10.513628 7.975139 17.410560 -0.089665 5.258828 2.919831 -0.414920 -0.630100 -0.407860 18.116437 -10.385251 3.027779 -0.527163 3.236996 -30.182109 -3.188903 -2.377438 17.465747 0.359532 -2.035384 3.742959 -0.285730 0.677510 0.053800 -3.226597 -3.051529 -7.695998 3.841614 -3.918276 10.163053 -5.570137 -2.970806 5.809147 1.660319 -2.585551 -11.592812 -9.644627 6.855209 46.014385 -0.200480 2.890640 9.256470 -21.147635 -14.445110 4.839974 -39.547119 -9.772792 0.407134 -5.428635 -11.461751 -0.294227 -4.148683 2.717760 0.233210 0.349080 -0.356680 0.032330 18.253584 15.243037 8.332706 57.352119 3.187487 -10.452685 35.638447 41.251006 7.617315 2.241289 -1.355320 -0.401180 0.324370 0.469340 -0.026820 
1.224250 17.570990 -1.689940 0.370999 3.446252 -3.684115 -15.322020 13.810227 3.085664 0.255437 -0.618496 -7.594740 -10.094732 8.265853 19.232084 -0.041726 5.413750 2.865853 -0.412630 -0.617480 -0.406760 18.084997 -10.420039 3.003495 -1.283052 3.176902 -30.149478 -2.745666 -2.503452 17.695157 0.366263 -2.092435 3.731165 -0.284910 0.686100 0.056320 -3.135874 -3.021548 -7.631859 3.095751 -3.559011 9.546922 -4.580772 -2.757266 6.142344 1.510246 -2.338101 -11.530992 -9.056879 6.617830 46.237055 -0.448140 3.156990 9.856270 -20.469948 -14.939914 5.056521 -41.112370 -10.893937 1.221264 -4.596407 -9.674584 -0.338613 -4.182127 2.724473 0.198530 0.367900 -0.367320 0.037120 17.989307 15.768453 8.059314 57.593581 4.843399 -9.482894 31.617449 38.304919 5.844946 2.254878 -1.331393 -0.385930 0.313910 0.456530 -0.016610 
1.186070 17.562030 -1.659110 0.232082 2.859195 -4.052281 -15.358223 13.831904 3.052306 0.730335 -0.770176 -7.960301 -9.896457 8.603434 20.952327 -0.005828 5.599680 2.790007 -0.392670 -0.589430 -0.399690 18.045076 -10.456645 2.950458 -2.231130 3.042537 -29.960518 -2.463515 -2.602520 17.898146 0.361531 -2.153652 3.705656 -0.269770 0.684320 0.065020 -3.012999 -3.001719 -7.552792 1.980464 -3.143752 8.912089 -3.407223 -2.511732 6.519127 1.268542 -2.211126 -11.441144 -8.655177 6.634203 46.360421 -0.298420 3.362940 9.802140 -19.392083 -15.228006 5.263543 -43.186099 -11.853790 1.919150 -3.978476 -8.679500 -0.368486 -4.198489 2.746790 0.181490 0.374890 -0.367980 0.043130 17.546024 16.225132 7.720389 57.777338 6.714887 -8.162588 28.041848 34.920553 4.393614 2.266683 -1.308926 -0.371140 0.302740 0.445040 -0.011810 
1.150670 17.556890 -1.627260 -0.150146 2.475512 -4.224373 -15.386194 13.847034 3.019022 1.469020 -0.946067 -8.455510 -9.860394 8.953893 22.403258 0.027535 5.802131 2.721005 -0.406250 -0.596700 -0.421090 18.012893 -10.491323 2.889466 -3.227859 2.868079 -29.543989 -1.929815 -2.758774 17.795193 0.370450 -2.215910 3.686966 -0.268160 0.710050 0.066520 -2.917476 -2.980493 -7.472482 1.181879 -2.830562 8.169805 -2.081640 -2.377059 6.850399 0.989217 -2.083360 -11.389461 -8.218705 6.518777 46.173380 -0.210500 3.446370 10.224290 -18.449825 -15.651332 5.517104 -45.628836 -12.708813 2.568153 -3.364049 -8.022494 -0.385341 -4.222939 2.760204 0.158880 0.395050 -0.385700 0.049970 17.293699 16.753655 7.495067 57.705951 8.192942 -6.942919 24.569920 31.729816 3.209472 2.277052 -1.278996 -0.375500 0.305890 0.450890 -0.001140 
1.116060 17.561430 -1.598820 -0.789282 2.282460 -4.370404 -15.394614 13.860401 2.988175 2.415402 -1.186152 -9.167660 -9.733414 9.286112 23.930164 0.055917 6.013975 2.645390 -0.426680 -0.615040 -0.443260 17.994915 -10.545201 2.822858 -4.178866 2.668310 -28.814557 -1.336180 -2.953965 17.662474 0.379762 -2.297564 3.664197 -0.274850 0.738760 0.073490 -2.875195 -2.934416 -7.403142 0.870347 -2.589305 7.588520 -0.935096 -2.285737 7.128207 0.743974 -1.989593 -11.362163 -7.847625 6.363983 45.852344 -0.302400 3.546190 10.638930 -17.794863 -16.155892 5.755849 -47.854123 -13.434512 3.073730 -3.004886 -7.885954 -0.393678 -4.250136 2.773810 0.135310 0.420480 -0.406960 0.049460 17.213758 17.327712 7.349579 57.462568 9.358221 -5.827359 21.362121 28.681365 2.276811 2.284965 -1.248901 -0.377860 0.305860 0.465130 0.007380 
1.081760 17.570850 -1.575920 -1.412562 2.286292 -4.353115 -15.399629 13.867702 2.965814 3.225837 -1.432412 -10.042253 -9.502999 9.475357 25.074890 0.061239 6.163856 2.595587 -0.460160 -0.648360 -0.483610 17.981431 -10.603656 2.744088 -5.215814 2.426112 -28.009179 -0.794977 -3.165880 17.637391 0.395485 -2.405217 3.637957 -0.283050 0.782590 0.073430 -2.848271 -2.891077 -7.326828 0.597986 -2.360452 6.983570 0.133834 -2.195849 7.430849 0.431127 -1.950986 -11.352410 -7.584174 6.215907 45.190463 -0.202790 3.463830 11.176920 -16.955531 -16.679734 5.956069 -50.159879 -14.300582 3.591027 -2.775482 -8.086935 -0.404656 -4.279504 2.785648 0.110890 0.451800 -0.441800 0.051370 17.061021 17.909486 7.296133 57.431320 10.268019 -4.857482 18.300642 25.917227 1.525455 2.285748 -1.222128 -0.393150 0.315160 0.489770 0.017060 
1.041760 17.586300 -1.557460 -1.884497 2.591331 -4.113201 -15.419267 13.891209 2.937358 3.658111 -1.613773 -10.945097 -8.805859 9.316305 25.560952 0.039632 6.138142 2.610264 -0.496500 -0.677540 -0.532860 17.954299 -10.673730 2.652881 -6.387914 2.139001 -27.274897 -0.528169 -3.349847 17.944824 0.415447 -2.538956 3.604783 -0.287210 0.830520 0.062020 -2.785479 -2.867718 -7.226597 -0.183252 -2.095348 6.287740 1.420057 -2.112440 7.698839 0.029697 -1.763337 -11.279003 -6.983425 5.956320 44.240443 0.283310 3.178450 11.763820 -15.962450 -17.054845 6.076333 -52.683998 -15.273928 4.123974 -2.538000 -8.432490 -0.417128 -4.303688 2.801864 0.076900 0.482620 -0.484450 0.055030 16.955822 18.225919 7.221243 57.419489 10.887268 -3.999535 15.661501 23.456538 0.971055 2.291051 -1.205152 -0.410590 0.328070 0.512020 0.031990 
0.997030 17.610930 -1.541420 -2.364836 2.926265 -3.742903 -15.444284 13.910829 2.905057 4.054782 -1.699775 -11.673291 -8.205235 9.066512 25.453180 0.015552 6.040798 2.649189 -0.516100 -0.694190 -0.572570 17.925045 -10.731785 2.576364 -7.293819 1.927467 -26.619155 -0.452505 -3.464822 18.163392 0.426471 -2.654817 3.574093 -0.291680 0.870010 0.070940 -2.711621 -2.844768 -7.128126 -1.117024 -1.733620 5.599904 2.926338 -1.971265 7.901372 -0.392866 -1.509720 -11.175338 -6.269411 5.618244 43.247575 0.627430 2.926600 12.242440 -15.052040 -17.266545 6.127454 -55.275719 -16.248843 4.608654 -2.429528 -9.096914 -0.449733 -4.321143 2.841034 0.044210 0.512390 -0.515720 0.065810 16.992018 18.345245 7.140198 57.242181 11.184177 -3.326257 13.301186 21.284339 0.557508 2.294663 -1.208099 -0.410790 0.323200 0.525180 0.049140 
